<svg xmlns="http://www.w3.org/2000/svg" viewBox="0 0 1500 980" role="img" aria-labelledby="title desc"><title id="title">MATANTAN55 cybersecurity and AI developer profile</title><desc id="desc">Terminal-style GitHub profile dashboard preview for matantan55.</desc><defs><linearGradient id="hero" x1="0" x2="1"><stop stop-color="#071018"/><stop offset="1" stop-color="#11102a"/></linearGradient></defs><rect width="1500" height="980" rx="18" fill="#050709"/><rect x="1" y="1" width="1498" height="978" rx="18" fill="none" stroke="#30363d"/><rect width="1500" height="58" rx="18" fill="#080b0e"/><circle cx="22" cy="29" r="7" fill="#ff5f57"/><circle cx="48" cy="29" r="7" fill="#febc2e"/><circle cx="74" cy="29" r="7" fill="#28c840"/><text x="106" y="36" fill="#39ff76" font-family="monospace" font-size="20">›_</text><text x="145" y="36" fill="#f0f6fc" font-family="monospace" font-size="21" font-weight="700">MATANTAN55</text><text x="300" y="36" fill="#8b949e" font-family="monospace" font-size="13">v2.6.1</text><circle cx="1000" cy="29" r="5" fill="#39d353"/><text x="1015" y="35" fill="#63e783" font-family="monospace" font-size="13">ONLINE</text><text x="1100" y="35" fill="#8b949e" font-family="monospace" font-size="13">USER matantan55</text><line x1="0" y1="58" x2="1500" y2="58" stroke="#30363d"/><rect x="0" y="59" width="280" height="921" fill="#070a0d"/><text x="24" y="91" fill="#56e87c" font-family="monospace" font-size="13">matantan55@github ~</text><rect x="22" y="113" width="236" height="66" rx="9" fill="#0c1b14" stroke="#238636"/><text x="38" y="145" fill="#56e87c" font-family="monospace" font-size="24">›_</text><text x="68" y="143" fill="#f0f6fc" font-family="monospace" font-size="16">HOME</text><text x="68" y="163" fill="#8b949e" font-family="monospace" font-size="12">overview</text><g font-family="monospace" fill="#f0f6fc" font-size="16"><text x="68" y="216">ABOUT</text><text x="68" y="279">PROJECTS</text><text x="68" y="342">ACTIVITY</text><text x="68" y="405">STACK</text><text x="68" y="468">NOW</text><text x="68" y="531">CONTACT</text></g><g font-family="monospace" fill="#8b949e" font-size="12"><text x="68" y="237">whoami</text><text x="68" y="300">created + contributed</text><text x="68" y="363">live feed</text><text x="68" y="426">technologies</text><text x="68" y="489">currently</text><text x="68" y="552">get in touch</text></g><rect x="22" y="625" width="236" height="125" rx="8" fill="#07100b" stroke="#238636"/><g fill="#56e87c" font-family="monospace" font-size="13"><text x="34" y="653">&gt; welcome to matantan55</text><text x="34" y="677">&gt; cybersecurity + AI</text><text x="34" y="701">&gt; type 'help' to explore</text></g><text x="34" y="731" fill="#39ff76" font-family="monospace" font-size="18">█</text><rect x="293" y="84" width="864" height="235" rx="9" fill="url(#hero)" stroke="#30363d"/><text x="328" y="120" fill="#8ee6bd" font-family="monospace" font-size="13">HELLO, I'M</text><text x="328" y="157" fill="#f0f6fc" font-family="monospace" font-size="32" font-weight="700">MATANTAN55_</text><text x="328" y="194" fill="#56e87c" font-family="monospace" font-size="18" font-weight="700">Cybersecurity and AI enthusiast</text><text x="328" y="224" fill="#f0f6fc" font-family="monospace" font-size="14">I build things that live on the internet.</text><text x="328" y="250" fill="#f0f6fc" font-family="monospace" font-size="14">Focused on clean systems, developer experience</text><text x="328" y="276" fill="#f0f6fc" font-family="monospace" font-size="14">and shipping products.</text><text x="328" y="303" fill="#8b949e" font-family="monospace" font-size="12">&gt; Currently building cool stuff <tspan fill="#39ff76">█</tspan></text><rect x="1170" y="84" width="308" height="386" rx="9" fill="#080b0e" stroke="#30363d"/><text x="1190" y="117" fill="#39ff76" font-family="monospace" font-size="15">›_</text><text x="1216" y="117" fill="#f0f6fc" font-family="monospace" font-size="14">LIVE FEED</text><circle cx="1453" cy="114" r="5" fill="#39d353"/><g font-family="monospace" font-size="12"><text x="1190" y="154" fill="#f0f6fc">◉ GitHub activity</text><text x="1215" y="177" fill="#8b949e">recent public events</text><line x1="1190" y1="192" x2="1458" y2="192" stroke="#21262d"/><text x="1190" y="223" fill="#56e87c">⌘ repositories updated</text><text x="1215" y="246" fill="#8b949e">projects and code</text><line x1="1190" y1="261" x2="1458" y2="261" stroke="#21262d"/><text x="1190" y="292" fill="#f0f6fc">★ public activity</text><text x="1215" y="315" fill="#8b949e">stars, issues, pull requests</text><line x1="1190" y1="330" x2="1458" y2="330" stroke="#21262d"/><text x="1190" y="361" fill="#f0f6fc">◌ contribution signal</text><text x="1215" y="384" fill="#8b949e">profile data</text><text x="1190" y="428" fill="#39d353">&gt; LIVE</text></g><g font-family="monospace"><rect x="293" y="335" width="255" height="195" rx="9" fill="#080b0e" stroke="#30363d"/><text x="312" y="365" fill="#39ff76">›_ SYSTEM STATUS</text><text x="312" y="405" fill="#f0f6fc" font-size="12">CPU</text><text x="480" y="405" fill="#f0f6fc" font-size="12">72%</text><text x="365" y="405" fill="#39d353" font-size="14">███████░░░</text><text x="312" y="438" fill="#f0f6fc" font-size="12">MEMORY</text><text x="480" y="438" fill="#f0f6fc" font-size="12">48%</text><text x="365" y="438" fill="#39d353" font-size="14">█████░░░░░</text><text x="312" y="471" fill="#f0f6fc" font-size="12">BUILD</text><text x="480" y="471" fill="#f0f6fc" font-size="12">91%</text><text x="365" y="471" fill="#39d353" font-size="14">█████████░</text><text x="312" y="507" fill="#39d353" font-size="12">● All systems operational</text><rect x="563" y="335" width="255" height="195" rx="9" fill="#080b0e" stroke="#30363d"/><text x="582" y="365" fill="#39ff76">›_ ACTIVITY OVERVIEW</text><text x="582" y="407" fill="#8b949e" font-size="12">Commits (7d)</text><text x="755" y="407" fill="#39d353" font-size="13">LIVE</text><text x="582" y="441" fill="#8b949e" font-size="12">Pull requests</text><text x="755" y="441" fill="#39d353" font-size="13">OPEN</text><text x="582" y="475" fill="#8b949e" font-size="12">Issues</text><text x="755" y="475" fill="#39d353" font-size="13">OPEN</text><text x="582" y="509" fill="#39d353" font-size="12">↗ tracking GitHub signal</text><rect x="833" y="335" width="324" height="195" rx="9" fill="#080b0e" stroke="#30363d"/><text x="853" y="365" fill="#39ff76">◌ TOP LANGUAGES</text><text x="853" y="405" fill="#f0f6fc" font-size="13">Python</text><rect x="940" y="394" width="150" height="10" rx="4" fill="#17221a"/><rect x="940" y="394" width="145" height="10" rx="4" fill="#39d353"/><text x="1102" y="405" fill="#8b949e" font-size="12">#1</text><text x="853" y="437" fill="#f0f6fc" font-size="13">C++</text><rect x="940" y="426" width="150" height="10" rx="4" fill="#17221a"/><rect x="940" y="426" width="110" height="10" rx="4" fill="#58a6ff"/><text x="1102" y="437" fill="#8b949e" font-size="12">#2</text><text x="853" y="469" fill="#f0f6fc" font-size="13">YARA</text><rect x="940" y="458" width="150" height="10" rx="4" fill="#17221a"/><rect x="940" y="458" width="88" height="10" rx="4" fill="#d29922"/><text x="1102" y="469" fill="#8b949e" font-size="12">#3</text><text x="853" y="501" fill="#f0f6fc" font-size="13">C</text><rect x="940" y="490" width="150" height="10" rx="4" fill="#17221a"/><rect x="940" y="490" width="65" height="10" rx="4" fill="#8b949e"/><text x="1102" y="501" fill="#8b949e" font-size="12">#4</text><rect x="293" y="550" width="525" height="235" rx="9" fill="#080b0e" stroke="#30363d"/><text x="313" y="581" fill="#39ff76">⌁ RUNNING PROCESSES</text><text x="313" y="620" fill="#f0f6fc" font-size="12">projects</text><text x="620" y="620" fill="#39d353" font-size="12">CREATED + CONTRIBUTED</text><text x="313" y="653" fill="#8b949e" font-size="12">forked repositories</text><text x="620" y="653" fill="#39d353" font-size="12">EXCLUDED</text><text x="313" y="686" fill="#8b949e" font-size="12">profile repository</text><text x="620" y="686" fill="#39d353" font-size="12">EXCLUDED</text><text x="313" y="719" fill="#8b949e" font-size="12">private repositories</text><text x="620" y="719" fill="#39d353" font-size="12">PRIVATE</text><text x="313" y="759" fill="#39d353" font-size="12">&gt; clean project showcase</text><rect x="833" y="550" width="645" height="235" rx="9" fill="#080b0e" stroke="#30363d"/><text x="853" y="581" fill="#39ff76">⚡ NOW</text><text x="853" y="625" fill="#8b949e" font-size="13">Focus</text><text x="1010" y="625" fill="#f0f6fc" font-size="13">Cybersecurity · AI development</text><line x1="853" y1="643" x2="1458" y2="643" stroke="#21262d"/><text x="853" y="677" fill="#8b949e" font-size="13">Stack</text><text x="1010" y="677" fill="#f0f6fc" font-size="13">Python · C++ · YARA · C</text><line x1="853" y1="695" x2="1458" y2="695" stroke="#21262d"/><text x="853" y="729" fill="#8b949e" font-size="13">About</text><text x="1010" y="729" fill="#f0f6fc" font-size="13">Team player · Software Developer</text><text x="853" y="765" fill="#39d353" font-size="13">&gt; systems online</text></g><rect x="293" y="810" width="1185" height="145" rx="9" fill="#080b0e" stroke="#30363d"/><text x="315" y="842" fill="#39ff76" font-family="monospace" font-size="13">matantan55@github ~ $ whoami</text><text x="315" y="870" fill="#f0f6fc" font-family="monospace" font-size="13">Cybersecurity and AI enthusiast · Software Developer</text><text x="315" y="897" fill="#8b949e" font-family="monospace" font-size="12">Python · C++ · YARA · C · Networking · Web scraping · AI</text><text x="315" y="925" fill="#39d353" font-family="monospace" font-size="12">LinkedIn: linkedin.com/in/matan-mishali-7317a8241/</text></svg>